<svg width="40" height="40" viewBox="0 0 40 40" fill="none" xmlns="http://www.w3.org/2000/svg">
<g clip-path="url(#clip0_0_34)">
<path d="M0 4C0 1.79086 1.79086 0 4 0H36C38.2091 0 40 1.79086 40 4V36C40 38.2091 38.2091 40 36 40H4C1.79086 40 0 38.2091 0 36V4Z" fill="white"/>
<path d="M32 0H8C3.58172 0 0 3.58172 0 8V32C0 36.4183 3.58172 40 8 40H32C36.4183 40 40 36.4183 40 32V8C40 3.58172 36.4183 0 32 0Z" fill="white"/>
<path d="M16.8 28.8C23.4275 28.8 28.8001 23.4274 28.8001 16.8C28.8001 10.1726 23.4275 4.8 16.8 4.8C10.1726 4.8 4.80005 10.1726 4.80005 16.8C4.80005 23.4274 10.1726 28.8 16.8 28.8Z" stroke="#FF9800" stroke-width="8"/>
<path d="M26 26L36 36" stroke="#FF9800" stroke-width="10" stroke-linecap="round"/>
<path d="M16.8 21.6C19.451 21.6 21.6 19.451 21.6 16.8C21.6 14.149 19.451 12 16.8 12C14.149 12 12 14.149 12 16.8C12 19.451 14.149 21.6 16.8 21.6Z" fill="#F44336"/>
<path d="M16.8 8.8V11.2M16.8 22.4V24.8M8.80005 16.8H11.2M22.4001 16.8H24.8001" stroke="#F44336" stroke-width="3" stroke-linecap="round"/>
</g>
<defs>
<clipPath id="clip0_0_34">
<path d="M0 4C0 1.79086 1.79086 0 4 0H36C38.2091 0 40 1.79086 40 4V36C40 38.2091 38.2091 40 36 40H4C1.79086 40 0 38.2091 0 36V4Z" fill="white"/>
</clipPath>
</defs>
</svg>
