<svg width="40" height="40" viewBox="0 0 40 40" fill="none" xmlns="http://www.w3.org/2000/svg">
<g clip-path="url(#clip0_0_23)">
<path d="M0 4C0 1.79086 1.79086 0 4 0H36C38.2091 0 40 1.79086 40 4V36C40 38.2091 38.2091 40 36 40H4C1.79086 40 0 38.2091 0 36V4Z" fill="white"/>
<path d="M32 0H8C3.58172 0 0 3.58172 0 8V32C0 36.4183 3.58172 40 8 40H32C36.4183 40 40 36.4183 40 32V8C40 3.58172 36.4183 0 32 0Z" fill="white"/>
<path d="M34 8H6C4.88 8 4 8.88 4 10V24C4 25.12 4.88 26 6 26H10V34L18 26H34C35.12 26 36 25.12 36 24V10C36 8.88 35.12 8 34 8Z" fill="#4CAF50"/>
<path d="M19.9999 19.8C21.5463 19.8 22.7999 18.5464 22.7999 17C22.7999 15.4536 21.5463 14.2 19.9999 14.2C18.4536 14.2 17.1999 15.4536 17.1999 17C17.1999 18.5464 18.4536 19.8 19.9999 19.8Z" fill="white"/>
<path d="M14 17C14 17 16 11.2 20 11.2C24 11.2 26 17 26 17" stroke="white" stroke-width="3" stroke-linecap="round"/>
</g>
<defs>
<clipPath id="clip0_0_23">
<path d="M0 4C0 1.79086 1.79086 0 4 0H36C38.2091 0 40 1.79086 40 4V36C40 38.2091 38.2091 40 36 40H4C1.79086 40 0 38.2091 0 36V4Z" fill="white"/>
</clipPath>
</defs>
</svg>
